<svg id="Capa_1" enable-background="new 0 0 510 510" height="512" viewBox="0 0 510 510" width="512" xmlns="http://www.w3.org/2000/svg"><g><path d="m510 97.5c-35.898 0-65 29.102-65 65v110.215.001c0-.01-.001-.018-.001-.027l-17.666-4.855 2.624-22.528c-12.572-8.024-29.456-6.553-40.438 4.43l-107.019 107.764v100l77.5 10 71.129-10v-8.893c0-21.549 8.561-42.215 23.798-57.452l31.275-31.276c15.238-15.237 23.798-35.903 23.798-57.452z" fill="#ffdbcc"/><path d="m282.5 457.5h148.629v30h-148.629z" fill="#80d385"/><path d="m227.5 357.5-107.019-107.766c-10.982-10.982-27.866-12.454-40.438-4.43l2.624 22.528-17.666 4.855c0 .009-.001.018-.001.027v-.001c0-17.167 0-96.658 0-110.215 0-35.898-29.102-65-65-65v204.927c0 21.549 8.561 42.215 23.798 57.452l31.275 31.276c15.237 15.237 23.797 35.903 23.797 57.452v8.893l71.13 10 77.5-10z" fill="#ffdbcc"/><path d="m78.87 457.5h148.63v30h-148.63z" fill="#d0e36d"/><g><g id="XMLID_758_" fill="#fdbba7"><path id="XMLID_767_" d="m388.511 329.178 56.488-56.489c-.009-11.111-5.642-21.386-15.042-27.384l-62.659 62.66z"/><path id="XMLID_759_" d="m121.489 329.178-56.488-56.489c.009-11.111 5.642-21.386 15.042-27.384l62.659 62.66z"/></g></g><path d="m225 22.5v135h-30v-105h-90v32c0 31.981 26.019 58 58 58h2v45h75l5-60-5-105zm-60 90h-2c-15.439 0-28-12.561-28-28v-2h30z" fill="#ff7b4a"/><g fill="#ff435b"><path d="m345 22.5h30v165h-30z"/><path d="m285 157.5h-30v-135h-15v165h75v-165h-30z"/></g></g></svg>